<svg xmlns="http://www.w3.org/2000/svg" width="960" height="420" viewBox="0 0 960 420" role="img">
<title>SCALE-05 string length — time per operation</title>
<desc>nanoseconds per operation against characters in the string — logarithmic x axis</desc>
<rect x="0" y="0" width="960" height="420" fill="#ffffff" />
<text x="16" y="26" fill="#1f2933" font-size="15" text-anchor="start" font-family="Segoe UI, Helvetica, Arial, sans-serif" font-weight="600">SCALE-05 string length — time per operation</text>
<text x="16" y="44" fill="#6b7280" font-size="11" text-anchor="start" font-family="Segoe UI, Helvetica, Arial, sans-serif" >nanoseconds per operation against characters in the string — logarithmic x axis</text>
<line x1="78" y1="366" x2="790" y2="366" stroke="#dfe3e8" stroke-width="1" />
<text x="70" y="370" fill="#6b7280" font-size="10" text-anchor="end" font-family="Segoe UI, Helvetica, Arial, sans-serif" >0</text>
<line x1="78" y1="292" x2="790" y2="292" stroke="#dfe3e8" stroke-width="1" />
<text x="70" y="296" fill="#6b7280" font-size="10" text-anchor="end" font-family="Segoe UI, Helvetica, Arial, sans-serif" >49,14 k</text>
<line x1="78" y1="218" x2="790" y2="218" stroke="#dfe3e8" stroke-width="1" />
<text x="70" y="222" fill="#6b7280" font-size="10" text-anchor="end" font-family="Segoe UI, Helvetica, Arial, sans-serif" >98,28 k</text>
<line x1="78" y1="144" x2="790" y2="144" stroke="#dfe3e8" stroke-width="1" />
<text x="70" y="148" fill="#6b7280" font-size="10" text-anchor="end" font-family="Segoe UI, Helvetica, Arial, sans-serif" >147,42 k</text>
<line x1="78" y1="70" x2="790" y2="70" stroke="#dfe3e8" stroke-width="1" />
<text x="70" y="74" fill="#6b7280" font-size="10" text-anchor="end" font-family="Segoe UI, Helvetica, Arial, sans-serif" >196,56 k</text>
<text x="78" y="384" fill="#6b7280" font-size="10" text-anchor="middle" font-family="Segoe UI, Helvetica, Arial, sans-serif" >8</text>
<text x="352.569" y="384" fill="#6b7280" font-size="10" text-anchor="middle" font-family="Segoe UI, Helvetica, Arial, sans-serif" >256</text>
<text x="570.345" y="384" fill="#6b7280" font-size="10" text-anchor="middle" font-family="Segoe UI, Helvetica, Arial, sans-serif" >4 k</text>
<text x="790" y="384" fill="#6b7280" font-size="10" text-anchor="middle" font-family="Segoe UI, Helvetica, Arial, sans-serif" >64 k</text>
<text x="434" y="408" fill="#1f2933" font-size="11" text-anchor="middle" font-family="Segoe UI, Helvetica, Arial, sans-serif" >characters in the string</text>
<text x="16" y="60" fill="#1f2933" font-size="11" text-anchor="start" font-family="Segoe UI, Helvetica, Arial, sans-serif" >nanoseconds per operation</text>
<path d="M78 365.185L352.569 365.052L570.345 364.016L790 283.677" fill="none" stroke="#2f6f9f" stroke-width="2" />
<circle cx="78" cy="365.185" r="3" fill="#2f6f9f" />
<circle cx="352.569" cy="365.052" r="3" fill="#2f6f9f" />
<circle cx="570.345" cy="364.016" r="3" fill="#2f6f9f" />
<circle cx="790" cy="283.677" r="3" fill="#2f6f9f" />
<rect x="800" y="70" width="10" height="10" fill="#2f6f9f" />
<text x="816" y="79" fill="#1f2933" font-size="10" text-anchor="start" font-family="Segoe UI, Helvetica, Arial, sans-serif" >'SCALE-05 deserialize' · MultiByte=False</text>
<path d="M78 365.142L352.569 364.198L570.345 351.243L790 70" fill="none" stroke="#b5651d" stroke-width="2" />
<circle cx="78" cy="365.142" r="3" fill="#b5651d" />
<circle cx="352.569" cy="364.198" r="3" fill="#b5651d" />
<circle cx="570.345" cy="351.243" r="3" fill="#b5651d" />
<circle cx="790" cy="70" r="3" fill="#b5651d" />
<rect x="800" y="90" width="10" height="10" fill="#b5651d" />
<text x="816" y="99" fill="#1f2933" font-size="10" text-anchor="start" font-family="Segoe UI, Helvetica, Arial, sans-serif" >'SCALE-05 deserialize' · MultiByte=True</text>
<path d="M78 365.253L352.569 365.027L570.345 363.623L790 337.712" fill="none" stroke="#3f7d58" stroke-width="2" />
<circle cx="78" cy="365.253" r="3" fill="#3f7d58" />
<circle cx="352.569" cy="365.027" r="3" fill="#3f7d58" />
<circle cx="570.345" cy="363.623" r="3" fill="#3f7d58" />
<circle cx="790" cy="337.712" r="3" fill="#3f7d58" />
<rect x="800" y="110" width="10" height="10" fill="#3f7d58" />
<text x="816" y="119" fill="#1f2933" font-size="10" text-anchor="start" font-family="Segoe UI, Helvetica, Arial, sans-serif" >'SCALE-05 serialize' · MultiByte=False</text>
<path d="M78 365.236L352.569 364.401L570.345 354.195L790 79.41" fill="none" stroke="#8a5fa8" stroke-width="2" />
<circle cx="78" cy="365.236" r="3" fill="#8a5fa8" />
<circle cx="352.569" cy="364.401" r="3" fill="#8a5fa8" />
<circle cx="570.345" cy="354.195" r="3" fill="#8a5fa8" />
<circle cx="790" cy="79.41" r="3" fill="#8a5fa8" />
<rect x="800" y="130" width="10" height="10" fill="#8a5fa8" />
<text x="816" y="139" fill="#1f2933" font-size="10" text-anchor="start" font-family="Segoe UI, Helvetica, Arial, sans-serif" >'SCALE-05 serialize' · MultiByte=True</text>
<line x1="78" y1="70" x2="78" y2="366" stroke="#dfe3e8" stroke-width="1" />
<line x1="78" y1="366" x2="790" y2="366" stroke="#dfe3e8" stroke-width="1" />
</svg>
